<?xml version="1.0" encoding="UTF-8"?>
<svg id="Calque_1" data-name="Calque 1" xmlns="http://www.w3.org/2000/svg" viewBox="0 0 500 500">
  <defs>
    <style>
      .cls-1 {
        fill: #173e19;
      }

      .cls-2 {
        fill: #6ac46a;
      }
    </style>
  </defs>
  <circle class="cls-1" cx="269.11" cy="271.9" r="199.84"/>
  <g>
    <path class="cls-2" d="M267.06,323.5c-28.87-39.65-45.48-62.38-51.29-70.21,0,0,0,0,0,0-.22-.31-13.82-19.5-9.07-28.45.51-.97.76-1.03,2.08-2.96,0,0,5.55-8.13,8.05-18.9,4.61-19.82-20.22-50.02-20.22-50.02-38.46-46.77-72.64-85.27-91.93-106.68-.85.83-1.95,2.17-2.54,4.06-1.74,5.55,2.59,10.52,2.93,10.91,21.9,28.32,43.81,56.65,65.71,84.97,3.08,3.66,2.55,9.07-.83,11.9-3.6,3.02-9.46,2.3-12.35-1.91-23.99-29.92-47.98-59.84-71.97-89.76-.99-1.62-3.08-1.89-4.2-.94-.92.78-1.16,2.36-.36,3.63,22.36,31.35,44.72,62.7,67.09,94.05,3.12,4.16,2.14,10.13-2.02,13.03-4.03,2.81-9.77,1.84-12.7-2.26-23.54-29.77-47.08-59.53-70.62-89.3-1.07-1.35-3.01-1.63-4.39-.68-1.43.99-1.81,3.01-.8,4.49,22.36,30.76,44.73,61.52,67.09,92.28,2.13,4.01,1.1,8.84-2.08,11.33-3.75,2.93-9.83,2.09-12.92-2.39-35.68-48.15-62.16-83.32-66.11-87.86-1.22-1.4-2.87-2.81-5.11-3.25-4.09-.81-7.12,1.87-7.45,2.18l79.1,121.31c1.47,2.61,17.79,30.56,44.78,30.89,4.15.05,9.91-.54,16.59-3.31.97-.44,1.92-.73,2.84-.92,10.15-2.06,23.77,13.16,25.7,15.42,6.32,7.41,22.59,28.04,45.94,58.37,1.04-.02,2.08-.05,3.13-.05,5.96,0,11.95.37,17.93,1.03Z"/>
    <path class="cls-2" d="M319.4,232.89s-16.08-24.08-17.96-46.77c-.18-2.22-.22-3.73-.25-4.38-.68-18.74-14.32-60.71-44.95-94.37-42.06-46.2-97.78-56.56-115.01-59.11,59.51,79.27,119.02,158.53,178.53,237.8,1.66-8.14,3.89-15.79,6.53-22.96-2.97-4.37-5.3-7.82-6.89-10.21Z"/>
    <path class="cls-2" d="M394.75,176.3c-6.64,4.67-43.88,31.78-58.25,81.67-2.09,7.26-3.71,15-4.66,23.23-.03.27-.05.55-.08.82-4.87,44.06,11.49,79.07,26.19,100.8-16.3-16.27-42.33-35.54-79-42.99-.23-.05-.45-.11-.69-.15-7.24-1.44-14.28-2.27-21.11-2.64-2.71-.15-5.39-.24-8.02-.24-54.98,0-93.77,30.49-99.82,35.41,4.73,8.01,35.64,58.39,99.59,71.02,9.61,1.9,18.87,2.73,27.71,2.73,56.9,0,96.45-34.34,101.4-38.78-.07-.1-.16-.23-.23-.35.07.06.16.15.22.21,8.38-6.53,52.05-41.89,59.4-104.79,8.3-70.96-36.35-119.37-42.65-125.97Z"/>
  </g>
</svg>