<?xml version="1.0" encoding="UTF-8"?>
<svg id="Calque_1" data-name="Calque 1" xmlns="http://www.w3.org/2000/svg" xmlns:xlink="http://www.w3.org/1999/xlink" viewBox="0 0 500 500">
  <defs>
    <style>
      .cls-1 {
        fill: none;
      }

      .cls-2 {
        fill: #173e19;
      }

      .cls-3 {
        fill: #6ac46a;
      }

      .cls-4 {
        fill: #f7f2ef;
      }

      .cls-5 {
        clip-path: url(#clippath);
      }
    </style>
    <clipPath id="clippath">
      <circle class="cls-1" cx="269.11" cy="271.9" r="199.84"/>
    </clipPath>
  </defs>
  <g>
    <g>
      <path class="cls-3" d="M269.11,477.74c-113.5,0-205.84-92.34-205.84-205.84s92.34-205.84,205.84-205.84,205.84,92.34,205.84,205.84-92.34,205.84-205.84,205.84Z"/>
      <path class="cls-4" d="M269.11,72.06c110.37,0,199.84,89.47,199.84,199.84s-89.47,199.84-199.84,199.84-199.84-89.47-199.84-199.84,89.47-199.84,199.84-199.84M269.11,60.06c-28.59,0-56.34,5.6-82.46,16.65-25.23,10.67-47.88,25.94-67.33,45.39-19.45,19.45-34.72,42.1-45.39,67.33-11.05,26.12-16.65,53.87-16.65,82.46s5.6,56.34,16.65,82.46c10.67,25.23,25.94,47.88,45.39,67.33,19.45,19.45,42.1,34.72,67.33,45.39,26.12,11.05,53.87,16.65,82.46,16.65s56.34-5.6,82.46-16.65c25.23-10.67,47.88-25.94,67.33-45.39,19.45-19.45,34.72-42.1,45.39-67.33,11.05-26.12,16.65-53.87,16.65-82.46s-5.6-56.34-16.65-82.46c-10.67-25.23-25.94-47.88-45.39-67.33-19.45-19.45-42.1-34.72-67.33-45.39-26.12-11.05-53.87-16.65-82.46-16.65h0Z"/>
    </g>
    <g>
      <g>
        <path class="cls-2" d="M267.06,329.5c-.22,0-.44-.01-.66-.04-5.95-.66-11.76-.99-17.27-.99-.73,0-1.46.02-2.18.03,0,0-.91.02-.95.02-1.86,0-3.62-.86-4.75-2.34-22.6-29.36-39.28-50.55-45.75-58.13-4.46-5.22-13.61-13.5-19.17-13.5-.27,0-.53.02-.76.07-.53.11-1.05.28-1.57.51-.05.03-.11.05-.17.07-6.03,2.5-12.22,3.77-18.41,3.77h-.56c-29.66-.37-47.45-29.6-49.83-33.77L26.03,104.05c-1.6-2.46-1.19-5.72.97-7.7,1-.92,4.67-3.9,9.96-3.9.9,0,1.81.09,2.7.26,3.16.62,6.01,2.37,8.47,5.2,4.14,4.75,30.2,39.38,66.4,88.22.04.05.08.11.12.16.65.95,1.71,1.51,2.83,1.51.58,0,1.09-.16,1.46-.44.79-.62,1.21-2.09.62-3.5L52.78,92.01c-.04-.05-.07-.1-.11-.15-2.84-4.18-1.79-9.91,2.34-12.79,1.54-1.07,3.36-1.64,5.24-1.64,2.86,0,5.51,1.28,7.28,3.52l70.62,89.29c.06.08.12.16.18.24.6.85,1.6,1.35,2.66,1.35.44,0,1.09-.09,1.72-.52.9-.62,1.16-1.55,1.24-2.05.08-.51.12-1.52-.59-2.46-.03-.04-67.17-94.16-67.17-94.16-.07-.09-.13-.19-.19-.29-2.36-3.75-1.69-8.65,1.55-11.4,1.5-1.28,3.45-1.98,5.48-1.98,2.96,0,5.78,1.5,7.46,3.95l71.8,89.54c.09.12.18.23.27.36.73,1.07,1.87,1.15,2.2,1.15.3,0,.88-.06,1.34-.44.4-.33.65-.88.71-1.49.04-.41,0-1.22-.61-1.95-.05-.06-.1-.13-.15-.19l-65.59-84.82c-3.16-3.63-6.05-10.05-4.03-16.52.77-2.47,2.14-4.68,4.08-6.56,1.12-1.09,2.63-1.71,4.19-1.71.06,0,.13,0,.19,0,1.63.05,3.17.77,4.26,1.98,31.97,35.48,62.96,71.44,92.11,106.89,2.73,3.32,26.56,33.12,21.43,55.19-2.73,11.74-8.69,20.56-8.94,20.93-.71,1.03-1.17,1.63-1.47,2.03-.09.11-.16.2-.23.3-1.77,3.32,3.08,14.4,8.59,22.16,5.94,8.01,23.2,31.63,51.3,70.21,1.4,1.92,1.53,4.49.34,6.54-1.08,1.86-3.07,2.99-5.19,2.99Z"/>
        <path class="cls-4" d="M104.67,46.29c19.29,21.41,53.47,59.91,91.93,106.68,0,0,24.83,30.19,20.22,50.02-2.5,10.77-8.05,18.9-8.05,18.9-1.32,1.93-1.56,1.99-2.08,2.96-4.75,8.95,8.85,28.14,9.07,28.45,0,0,0,0,0,0,5.81,7.82,22.42,30.55,51.29,70.21-5.97-.66-11.96-1.03-17.93-1.03-1.05,0-2.09.03-3.13.05-23.35-30.33-39.62-50.96-45.94-58.37-1.8-2.11-13.88-15.61-23.74-15.61-.66,0-1.32.06-1.96.19-.92.19-1.87.48-2.84.92-6.43,2.67-12,3.31-16.11,3.31-.16,0-.32,0-.48,0-26.99-.33-43.31-28.28-44.78-30.89L31.06,100.77c.29-.26,2.61-2.33,5.91-2.33.49,0,1.01.05,1.54.15,2.23.44,3.89,1.85,5.11,3.25,3.95,4.53,30.42,39.71,66.11,87.86,1.88,2.72,4.87,4.1,7.77,4.1,1.86,0,3.69-.57,5.15-1.72,3.19-2.49,4.21-7.32,2.08-11.33-22.36-30.76-44.73-61.52-67.09-92.28-1-1.47-.62-3.49.8-4.49.55-.38,1.18-.56,1.82-.56.96,0,1.93.43,2.57,1.24,23.54,29.76,47.08,59.53,70.62,89.3,1.8,2.53,4.67,3.87,7.55,3.87,1.8,0,3.6-.52,5.15-1.6,4.16-2.9,5.14-8.86,2.02-13.03-22.36-31.35-44.72-62.7-67.09-94.05-.8-1.28-.56-2.86.36-3.63.43-.36,1-.55,1.59-.55.96,0,1.99.48,2.61,1.49,23.99,29.92,47.98,59.84,71.97,89.76,1.71,2.48,4.45,3.75,7.15,3.75,1.87,0,3.73-.61,5.2-1.85,3.38-2.83,3.9-8.24.83-11.9-21.9-28.32-43.81-56.65-65.71-84.97-.34-.38-4.67-5.35-2.93-10.91.59-1.89,1.69-3.23,2.54-4.06M104.67,34.29c-3.12,0-6.13,1.22-8.37,3.4-2.62,2.55-4.56,5.69-5.62,9.07-.84,2.68-1.09,5.31-.91,7.83-2.07-1.05-4.38-1.62-6.75-1.62-3.45,0-6.78,1.21-9.36,3.4-5.5,4.67-6.68,12.91-2.74,19.17.12.2.25.39.39.58l.09.13c-2.88-3.08-6.87-4.83-11.15-4.83-3.12,0-6.12.94-8.67,2.71-4.68,3.25-6.97,8.73-6.43,14.07-1.38-.63-2.83-1.1-4.33-1.39-1.27-.25-2.57-.38-3.86-.38-7.26,0-12.22,3.83-14.02,5.48-4.33,3.97-5.15,10.48-1.94,15.4l78.9,121.01c1.61,2.79,6.59,10.84,14.74,18.69,12.01,11.57,25.89,17.77,40.14,17.95.21,0,.42,0,.63,0,6.98,0,13.95-1.42,20.71-4.23.11-.05.23-.1.34-.15.02,0,.03-.01.05-.02,2.63.47,9.31,5.38,14.43,11.37,6.41,7.51,23.02,28.61,45.56,57.9,2.27,2.95,5.79,4.68,9.51,4.68.08,0,.15,0,.23,0l.83-.02c.69-.01,1.37-.03,2.07-.03,5.28,0,10.87.32,16.61.96.44.05.88.07,1.32.07,4.24,0,8.21-2.25,10.38-5.98,2.39-4.11,2.12-9.24-.68-13.09-28.03-38.49-45.28-62.11-51.28-70.19-3.91-5.55-7.44-12.98-7.77-16.21.27-.37.59-.82.97-1.38.7-1.02,6.9-10.35,9.83-22.95,2.61-11.23-.62-25.04-9.61-41.03-6.08-10.83-12.75-18.98-13.03-19.32-29.21-35.53-60.26-71.56-92.29-107.09-2.18-2.42-5.26-3.85-8.52-3.96-.13,0-.26,0-.39,0h0Z"/>
      </g>
      <g>
        <path class="cls-2" d="M319.77,272.06c-1.86,0-3.65-.87-4.8-2.4L136.44,31.86c-1.46-1.95-1.6-4.58-.36-6.67,1.09-1.83,3.06-2.93,5.15-2.93.29,0,.58.02.88.06,27.21,4.02,78.79,17.3,118.57,61,32.59,35.8,45.83,79.23,46.51,98.19v.23c.03.71.08,2.02.23,3.87,1.72,20.74,16.82,43.71,16.97,43.94h0c1.59,2.38,3.9,5.81,6.85,10.16,1.09,1.6,1.34,3.63.67,5.45-2.64,7.17-4.75,14.6-6.28,22.09-.47,2.31-2.26,4.14-4.56,4.66-.44.1-.88.15-1.32.15Z"/>
        <path class="cls-4" d="M141.24,28.26c17.23,2.55,72.95,12.91,115.01,59.11,30.64,33.65,44.28,75.63,44.95,94.37.02.66.06,2.17.25,4.38,1.88,22.68,17.96,46.77,17.96,46.77,1.59,2.39,3.92,5.84,6.89,10.21-2.64,7.17-4.87,14.82-6.53,22.96-59.51-79.27-119.02-158.53-178.53-237.8M141.23,16.26c-4.19,0-8.13,2.19-10.31,5.86-2.49,4.18-2.21,9.45.72,13.34l151.73,202.1,26.8,35.7c2.3,3.06,5.87,4.8,9.6,4.8.88,0,1.76-.1,2.64-.29,4.61-1.04,8.18-4.68,9.12-9.31,1.47-7.19,3.49-14.33,6.03-21.21,1.34-3.64.84-7.69-1.34-10.9-3.29-4.83-5.52-8.17-6.82-10.11-.2-.3-14.39-21.91-15.99-41.11-.14-1.71-.18-2.93-.21-3.58v-.25c-.91-24.84-18.06-69.03-48.08-102.01-41.04-45.08-94.13-58.76-122.13-62.9-.59-.09-1.18-.13-1.76-.13h0Z"/>
      </g>
      <g>
        <path class="cls-2" d="M276.62,451.98c-9.61,0-19.33-.96-28.88-2.84-63-12.45-95.22-59.68-103.59-73.86-1.51-2.56-.92-5.83,1.38-7.71,10.6-8.62,49.41-36.76,103.6-36.76,0,0,0,0,0,0,2.56,0,5.29.08,8.35.25,7.41.4,14.79,1.32,21.95,2.74.18.04.37.08.56.12l.15.04c23.3,4.73,42.45,14.12,57.5,24.33-8.97-20.71-15.18-46.78-11.85-76.92,0,0,.07-.67.09-.86.95-8.16,2.58-16.31,4.86-24.2,14.19-49.26,49.95-77.45,60.57-84.92,1.04-.73,2.25-1.09,3.45-1.09,1.59,0,3.17.63,4.34,1.86,8.86,9.28,52.64,59.22,44.27,130.81-7.09,60.65-47.17,97.3-60.77,108.12-.17.2-.36.39-.56.58-7.5,6.73-47.8,40.32-105.41,40.32Z"/>
        <path class="cls-4" d="M394.75,176.3c6.3,6.6,50.95,55.01,42.65,125.97-7.35,62.9-51.02,98.26-59.4,104.79-.06-.06-.15-.14-.22-.21.07.11.16.24.23.35-4.95,4.44-44.5,38.78-101.4,38.78-8.84,0-18.1-.83-27.71-2.73-63.95-12.64-94.86-63.02-99.59-71.02,6.05-4.92,44.84-35.42,99.82-35.41,2.63,0,5.32.09,8.02.24,6.82.37,13.86,1.2,21.11,2.64.23.05.45.11.69.15,36.66,7.44,62.7,26.72,79,42.99-14.7-21.73-31.06-56.74-26.19-100.8.03-.27.05-.54.08-.82.96-8.23,2.57-15.97,4.66-23.23,14.37-49.88,51.61-77,58.25-81.67M394.75,164.3c-2.4,0-4.81.72-6.9,2.18-11.03,7.75-48.15,37.02-62.88,88.16-2.36,8.2-4.06,16.67-5.05,25.17-.03.23-.05.46-.07.68l-.02.2c-2.64,23.84.46,45.21,6.19,63.54-12.75-6.85-27.61-12.69-44.62-16.15h-.05c-.25-.07-.49-.13-.75-.18-7.44-1.47-15.11-2.43-22.79-2.85-3.17-.17-6.01-.26-8.67-.26-56.18,0-96.4,29.17-107.39,38.1-4.61,3.75-5.78,10.3-2.76,15.41,8.69,14.72,42.15,63.76,107.6,76.69,9.93,1.96,20.03,2.96,30.04,2.96,59.79,0,101.64-34.87,109.42-41.85.23-.21.45-.42.66-.64,8.15-6.5,19.75-17.19,31.06-32.57,17.59-23.92,28.21-50.59,31.57-79.25,3.76-32.19-1.97-63.78-17.04-93.89-10.96-21.9-23.83-36.5-28.85-41.76-2.34-2.45-5.5-3.72-8.69-3.72h0Z"/>
      </g>
    </g>
  </g>
  <g class="cls-5">
    <circle class="cls-3" cx="269.11" cy="271.9" r="199.84"/>
    <g>
      <path class="cls-2" d="M267.06,323.5c-28.87-39.65-45.48-62.38-51.29-70.21,0,0,0,0,0,0-.22-.31-13.82-19.5-9.07-28.45.51-.97.76-1.03,2.08-2.96,0,0,5.55-8.13,8.05-18.9,4.61-19.82-20.22-50.02-20.22-50.02-38.46-46.77-72.64-85.27-91.93-106.68-.85.83-1.95,2.17-2.54,4.06-1.74,5.55,2.59,10.52,2.93,10.91,21.9,28.32,43.81,56.65,65.71,84.97,3.08,3.66,2.55,9.07-.83,11.9-3.6,3.02-9.46,2.3-12.35-1.91-23.99-29.92-47.98-59.84-71.97-89.76-.99-1.62-3.08-1.89-4.2-.94-.92.78-1.16,2.36-.36,3.63,22.36,31.35,44.72,62.7,67.09,94.05,3.12,4.16,2.14,10.13-2.02,13.03-4.03,2.81-9.77,1.84-12.7-2.26-23.54-29.77-47.08-59.53-70.62-89.3-1.07-1.35-3.01-1.63-4.39-.68-1.43.99-1.81,3.01-.8,4.49,22.36,30.76,44.73,61.52,67.09,92.28,2.13,4.01,1.1,8.84-2.08,11.33-3.75,2.93-9.83,2.09-12.92-2.39-35.68-48.15-62.16-83.32-66.11-87.86-1.22-1.4-2.87-2.81-5.11-3.25-4.09-.81-7.12,1.87-7.45,2.18l79.1,121.31c1.47,2.61,17.79,30.56,44.78,30.89,4.15.05,9.91-.54,16.59-3.31.97-.44,1.92-.73,2.84-.92,10.15-2.06,23.77,13.16,25.7,15.42,6.32,7.41,22.59,28.04,45.94,58.37,1.04-.02,2.08-.05,3.13-.05,5.96,0,11.95.37,17.93,1.03Z"/>
      <path class="cls-2" d="M319.4,232.89s-16.08-24.08-17.96-46.77c-.18-2.22-.22-3.73-.25-4.38-.68-18.74-14.32-60.71-44.95-94.37-42.06-46.2-97.78-56.56-115.01-59.11,59.51,79.27,119.02,158.53,178.53,237.8,1.66-8.14,3.89-15.79,6.53-22.96-2.97-4.37-5.3-7.82-6.89-10.21Z"/>
      <path class="cls-2" d="M394.75,176.3c-6.64,4.67-43.88,31.78-58.25,81.67-2.09,7.26-3.71,15-4.66,23.23-.03.27-.05.55-.08.82-4.87,44.06,11.49,79.07,26.19,100.8-16.3-16.27-42.33-35.54-79-42.99-.23-.05-.45-.11-.69-.15-7.24-1.44-14.28-2.27-21.11-2.64-2.71-.15-5.39-.24-8.02-.24-54.98,0-93.77,30.49-99.82,35.41,4.73,8.01,35.64,58.39,99.59,71.02,9.61,1.9,18.87,2.73,27.71,2.73,56.9,0,96.45-34.34,101.4-38.78-.07-.1-.16-.23-.23-.35.07.06.16.15.22.21,8.38-6.53,52.05-41.89,59.4-104.79,8.3-70.96-36.35-119.37-42.65-125.97Z"/>
    </g>
  </g>
</svg>